<?xml version="1.0" encoding="UTF-8" standalone="no"?>

<svg width="100%" height="100%" viewBox="0 0 4016 4962" version="1.1" xmlns="http://www.w3.org/2000/svg" xmlns:xlink="http://www.w3.org/1999/xlink" xml:space="preserve" xmlns:serif="http://www.serif.com/" style="fill-rule:evenodd;clip-rule:evenodd;stroke-linejoin:round;stroke-miterlimit:2;">
    <g transform="matrix(1,0,0,1,0,-5901)">
        <g id="dark" transform="matrix(1.61888,0,0,1.41418,0,5901.38)">
            <rect x="0" y="0" width="2480.32" height="3507.87" style="fill:none;"></rect>
            <g transform="matrix(0.617711,0,0,0.707122,468.109,0)">
                <g transform="matrix(0.309017,0.951057,-0.951057,0.309017,2524.92,32.4219)">
                    <path d="M1122.05,1064.95C1122.05,1059.68 1125.54,1055.05 1130.6,1053.6C1143.14,1050.1 1172.81,1045.13 1240.16,1045.16C1307.6,1045.2 1337.34,1050.22 1349.9,1053.73C1354.96,1055.19 1358.45,1059.82 1358.45,1065.09C1358.44,1138.81 1358.36,1697.39 1358.36,1697.39L1122.02,1686.17C1122.02,1686.17 1122.04,1137.93 1122.05,1064.95Z" style="fill:url(#_Linear1);"></path>
                    <clipPath id="_clip2">
                        <path d="M1122.05,1064.95C1122.05,1059.68 1125.54,1055.05 1130.6,1053.6C1143.14,1050.1 1172.81,1045.13 1240.16,1045.16C1307.6,1045.2 1337.34,1050.22 1349.9,1053.73C1354.96,1055.19 1358.45,1059.82 1358.45,1065.09C1358.44,1138.81 1358.36,1697.39 1358.36,1697.39L1122.02,1686.17C1122.02,1686.17 1122.04,1137.93 1122.05,1064.95Z"></path>
                    </clipPath>
                    <g clip-path="url(#_clip2)">
                        <g transform="matrix(0.309017,-0.951057,0.951057,0.309017,-789.627,2373.24)">
                            <g transform="matrix(1,-2.77556e-16,2.77556e-16,1,-781.637,-15.1988)">
                                <use xlink:href="#_Image3" x="2085.05" y="1583.86" width="115px" height="255px"></use>
                            </g>
                        </g>
                    </g>
                </g>
                <g transform="matrix(-0.809017,0.587785,-0.587785,-0.809017,3274.35,2443.77)">
                    <path d="M1122.05,1064.95C1122.05,1059.68 1125.54,1055.05 1130.6,1053.6C1143.14,1050.1 1172.81,1045.13 1240.16,1045.16C1307.6,1045.2 1337.34,1050.22 1349.9,1053.73C1354.96,1055.19 1358.45,1059.82 1358.45,1065.09C1358.45,1082.45 1358.44,1122.05 1358.44,1122.05L1358.24,1499.27L1122.02,1775.11C1122.02,1775.11 1122.04,1143.53 1122.05,1064.95Z" style="fill:url(#_Linear4);"></path>
                    <clipPath id="_clip5">
                        <path d="M1122.05,1064.95C1122.05,1059.68 1125.54,1055.05 1130.6,1053.6C1143.14,1050.1 1172.81,1045.13 1240.16,1045.16C1307.6,1045.2 1337.34,1050.22 1349.9,1053.73C1354.96,1055.19 1358.45,1059.82 1358.45,1065.09C1358.45,1082.45 1358.44,1122.05 1358.44,1122.05L1358.24,1499.27L1122.02,1775.11C1122.02,1775.11 1122.04,1143.53 1122.05,1064.95Z"></path>
                    </clipPath>
                    <g clip-path="url(#_clip5)">
                        <g transform="matrix(-0.809017,-0.587785,0.587785,-0.809017,1215.75,3875.28)">
                            <g transform="matrix(1,-0,1.11022e-16,1,-770.767,-23.5883)">
                                <use xlink:href="#_Image6" x="2052.07" y="1667.57" width="123px" height="532px"></use>
                            </g>
                        </g>
                    </g>
                </g>
                <path d="M1130.58,1053.7C1125.53,1055.16 1122.05,1059.78 1122.05,1065.04C1122.06,1112.14 1122.09,1358.45 1122.11,1551.54C1122.13,1707.99 1171.67,1860.42 1263.62,1987C1391.93,2163.64 1561.14,2396.57 1561.14,2396.57C1561.14,2396.57 1484.42,2290.97 1425.36,2209.66C1381.79,2149.68 1358.33,2077.45 1358.32,2003.33C1358.31,1746.94 1358.27,1141.44 1358.27,1065.05C1358.27,1059.79 1354.79,1055.17 1349.74,1053.71C1337.22,1050.19 1307.56,1045.17 1240.16,1045.17C1172.77,1045.17 1143.11,1050.18 1130.58,1053.7Z" style="fill:url(#_Linear7);"></path>
                <clipPath id="_clip8">
                    <path d="M1130.58,1053.7C1125.53,1055.16 1122.05,1059.78 1122.05,1065.04C1122.06,1112.14 1122.09,1358.45 1122.11,1551.54C1122.13,1707.99 1171.67,1860.42 1263.62,1987C1391.93,2163.64 1561.14,2396.57 1561.14,2396.57C1561.14,2396.57 1484.42,2290.97 1425.36,2209.66C1381.79,2149.68 1358.33,2077.45 1358.32,2003.33C1358.31,1746.94 1358.27,1141.44 1358.27,1065.05C1358.27,1059.79 1354.79,1055.17 1349.74,1053.71C1337.22,1050.19 1307.56,1045.17 1240.16,1045.17C1172.77,1045.17 1143.11,1050.18 1130.58,1053.7Z"></path>
                </clipPath>
                <g clip-path="url(#_clip8)">
                    <g transform="matrix(-0.309017,0.951057,0.951057,0.309017,-23.1874,42.4565)">
                        <g transform="matrix(-0.309017,0.951057,0.951057,0.309017,186.267,-711.908)">
                            <use xlink:href="#_Image9" x="1880.86" y="1594.42" width="172px" height="381px"></use>
                        </g>
                    </g>
                </g>
            </g>
            <g transform="matrix(0.499739,0.415636,0.363082,-0.572074,-22.3756,1728.04)">
                <path d="M1122.05,1064.95C1122.05,1059.68 1125.54,1055.05 1130.6,1053.6C1143.14,1050.1 1172.81,1045.13 1240.16,1045.16C1307.6,1045.2 1337.34,1050.22 1349.9,1053.73C1354.96,1055.19 1358.45,1059.82 1358.45,1065.09C1358.44,1126.2 1358.39,1516.88 1358.39,1516.88L1317.25,1605.86L1122.02,1686.17C1122.02,1686.17 1122.04,1137.93 1122.05,1064.95Z" style="fill:url(#_Linear10);"></path>
                <clipPath id="_clip11">
                    <path d="M1122.05,1064.95C1122.05,1059.68 1125.54,1055.05 1130.6,1053.6C1143.14,1050.1 1172.81,1045.13 1240.16,1045.16C1307.6,1045.2 1337.34,1050.22 1349.9,1053.73C1354.96,1055.19 1358.45,1059.82 1358.45,1065.09C1358.44,1126.2 1358.39,1516.88 1358.39,1516.88L1317.25,1605.86L1122.02,1686.17C1122.02,1686.17 1122.04,1137.93 1122.05,1064.95Z"></path>
                </clipPath>
                <g clip-path="url(#_clip11)">
                    <g transform="matrix(0.309017,-0.951057,0.951057,0.309017,-810.991,2376.33)">
                        <g transform="matrix(-0.309017,0.951057,0.951057,0.309017,174.91,-683.862)">
                            <use xlink:href="#_Image12" x="1710.24" y="1739.52" width="264px" height="611px"></use>
                        </g>
                    </g>
                </g>
            </g>
            <g transform="matrix(-0.190883,0.672513,0.587478,0.218513,440.551,22.92)">
                <path d="M1349.93,1053.68C1354.98,1055.15 1358.45,1059.77 1358.45,1065.03C1358.45,1119.24 1358.45,1438.47 1358.45,1649.84C1358.45,1693.98 1379.59,1735.45 1415.3,1761.4C1451.01,1787.34 1496.99,1794.62 1538.97,1780.98C1713.15,1724.36 1950.64,1647.18 1950.64,1647.18C1950.64,1647.18 1687.39,1732.72 1457.66,1807.38C1379.61,1832.74 1294.13,1819.21 1227.73,1770.97C1161.34,1722.73 1122.05,1645.62 1122.05,1563.55L1122.05,1064.69C1122.05,1059.65 1125.37,1055.2 1130.22,1053.78C1142.49,1050.25 1172.01,1045.16 1240.16,1045.16C1307.75,1045.16 1337.42,1050.16 1349.93,1053.68Z" style="fill:url(#_Linear13);"></path>
            </g>
            <g transform="matrix(0.499739,0.415636,0.363082,-0.572074,-22.3756,1728.04)">
                <path d="M1665.58,1739.81L1950.64,1647.18L1667.87,1739.08C1667.11,1739.33 1666.35,1739.57 1665.58,1739.81Z" style="fill:rgb(104,202,213);"></path>
            </g>
            <g transform="matrix(0.766555,0,0,0.852463,-1894.82,-284.216)">
                <path d="M3992.1,2679.06L3992.1,2937.66C3992.1,2988.86 3978.5,3028.36 3951.3,3056.16C3924.1,3083.96 3885.24,3097.86 3834.73,3097.86C3784.21,3097.86 3745.26,3083.96 3717.86,3056.16C3690.47,3028.36 3676.77,2988.86 3676.77,2937.66L3676.77,2679.06L3680.85,2674.86L3715.24,2674.86C3752.15,2674.86 3770.61,2695.26 3770.61,2736.06L3770.61,2938.86C3770.61,2966.86 3775.47,2987.66 3785.18,3001.26C3794.9,3014.86 3811.41,3021.66 3834.73,3021.66C3858.04,3021.66 3874.56,3014.86 3884.27,3001.26C3893.99,2987.66 3898.84,2966.86 3898.84,2938.86L3898.84,2679.06C3910.89,2676.66 3926.43,2675.46 3945.47,2675.46C3964.12,2675.46 3979.67,2676.66 3992.1,2679.06Z" style="fill:white;fill-rule:nonzero;"></path>
                <path d="M4039.32,3053.46C4040.48,3040.26 4044.46,3027.06 4051.26,3013.86C4058.06,3000.66 4066.13,2989.86 4075.45,2981.46C4117.03,3007.46 4156.47,3020.46 4193.78,3020.46C4210.1,3020.46 4222.05,3016.66 4229.62,3009.06C4237.2,3001.46 4240.99,2992.06 4240.99,2980.86C4240.99,2962.06 4228.75,2947.26 4204.27,2936.46L4135.49,2906.46C4108.68,2894.06 4088.08,2879.16 4073.7,2861.76C4059.33,2844.36 4052.14,2822.26 4052.14,2795.46C4052.14,2777.06 4055.73,2760.26 4062.92,2745.06C4070.11,2729.86 4080.21,2716.66 4093.23,2705.46C4106.25,2694.26 4121.69,2685.56 4139.57,2679.36C4157.44,2673.16 4177.26,2670.06 4199.02,2670.06C4242.54,2670.06 4286.45,2681.46 4330.75,2704.26C4328.81,2735.06 4318.32,2759.06 4299.28,2776.26C4259.64,2756.66 4224.67,2746.86 4194.36,2746.86C4178.82,2746.86 4167.16,2750.46 4159.39,2757.66C4151.62,2764.86 4147.73,2773.06 4147.73,2782.26C4147.73,2797.86 4159.19,2810.46 4182.12,2820.06L4252.06,2850.66C4281.6,2863.46 4303.65,2879.86 4318.22,2899.86C4332.79,2919.86 4340.08,2943.06 4340.08,2969.46C4340.08,2988.26 4336.77,3005.46 4330.17,3021.06C4323.56,3036.66 4313.75,3050.16 4300.73,3061.56C4287.72,3072.96 4271.49,3081.86 4252.06,3088.26C4232.64,3094.66 4209.9,3097.86 4183.87,3097.86C4133.35,3097.86 4085.17,3083.06 4039.32,3053.46Z" style="fill:white;fill-rule:nonzero;"></path>
                <path d="M4400.7,3088.86L4400.7,2679.06C4412.74,2676.66 4428.29,2675.46 4447.33,2675.46C4466.37,2675.46 4482.11,2676.66 4494.54,2679.06L4494.54,3088.86C4482.11,3091.26 4466.37,3092.46 4447.33,3092.46C4428.29,3092.46 4412.74,3091.26 4400.7,3088.86Z" style="fill:white;fill-rule:nonzero;"></path>
            </g>
        </g>
    </g>
    <defs>
        <linearGradient id="_Linear1" x1="0" y1="0" x2="1" y2="0" gradientUnits="userSpaceOnUse" gradientTransform="matrix(-1.78473,-561.873,561.873,-1.78473,1123.83,1662.1)"><stop offset="0" style="stop-color:rgb(92,102,112);stop-opacity:1"></stop><stop offset="1" style="stop-color:rgb(169,169,169);stop-opacity:1"></stop></linearGradient>
        <image id="_Image3" width="115px" height="255px"></image>
        <linearGradient id="_Linear4" x1="0" y1="0" x2="1" y2="0" gradientUnits="userSpaceOnUse" gradientTransform="matrix(0.0366142,-729.943,729.943,0.0366142,1122.02,1775.1)"><stop offset="0" style="stop-color:rgb(240,84,38);stop-opacity:1"></stop><stop offset="1" style="stop-color:rgb(252,196,14);stop-opacity:1"></stop></linearGradient>
        <image id="_Image6" width="123px" height="532px"></image>
        <linearGradient id="_Linear7" x1="0" y1="0" x2="1" y2="0" gradientUnits="userSpaceOnUse" gradientTransform="matrix(4.6309e-14,-756.284,2327.65,1.42527e-13,1122.05,1801.46)"><stop offset="0" style="stop-color:rgb(62,168,72);stop-opacity:1"></stop><stop offset="1" style="stop-color:rgb(146,200,62);stop-opacity:1"></stop></linearGradient>
        <image id="_Image9" width="172px" height="381px"></image>
        <linearGradient id="_Linear10" x1="0" y1="0" x2="1" y2="0" gradientUnits="userSpaceOnUse" gradientTransform="matrix(0.023216,-603.571,-603.571,-0.023216,1122.02,1686.17)"><stop offset="0" style="stop-color:rgb(175,50,147);stop-opacity:1"></stop><stop offset="1" style="stop-color:rgb(237,25,99);stop-opacity:1"></stop></linearGradient>
        <image id="_Image12" width="264px" height="611px"></image>
        <linearGradient id="_Linear13" x1="0" y1="0" x2="1" y2="0" gradientUnits="userSpaceOnUse" gradientTransform="matrix(1.77088,-780.179,-780.179,-1.77088,1356.68,1848.59)"><stop offset="0" style="stop-color:rgb(94,87,165);stop-opacity:1"></stop><stop offset="1" style="stop-color:rgb(87,158,214);stop-opacity:1"></stop></linearGradient>
    </defs>
</svg>