<?xml version="1.0" encoding="UTF-8" standalone="no"?>

<svg width="100%" height="100%" viewBox="0 0 4017 4961" version="1.1" xmlns="http://www.w3.org/2000/svg" xmlns:xlink="http://www.w3.org/1999/xlink" xml:space="preserve" xmlns:serif="http://www.serif.com/" style="fill-rule:evenodd;clip-rule:evenodd;stroke-linejoin:round;stroke-miterlimit:2;">
    <g transform="matrix(1,0,0,1,-4746,0)">
        <g id="mono" transform="matrix(1.61888,0,0,1.41418,4746.91,0)">
            <rect x="0" y="0" width="2480.32" height="3507.87" style="fill:none;"></rect>
            <g transform="matrix(0.617711,0,0,0.707122,468.109,0)">
                <path d="M1123.31,1593.48C1122.52,1579.54 1122.12,1565.56 1122.11,1551.54C1122.09,1358.45 1122.06,1112.14 1122.05,1065.04C1122.05,1059.78 1125.53,1055.16 1130.58,1053.7C1143.11,1050.18 1172.77,1045.17 1240.16,1045.17C1307.56,1045.17 1337.22,1050.19 1349.74,1053.71C1354.79,1055.17 1358.27,1059.79 1358.27,1065.05L1358.3,1591.25L1858.82,1428.64C1863.83,1427.01 1869.32,1428.9 1872.26,1433.27C1879.46,1444.11 1893.36,1470.79 1914.14,1534.86C1934.95,1599.01 1939.37,1628.84 1939.9,1641.88C1940.09,1647.14 1936.76,1651.89 1931.75,1653.52C1881.03,1669.99 1589.06,1764.81 1431.36,1816.02L1576.53,2015.85C1576.86,2016.29 1577.18,2016.73 1577.51,2017.17L1654.8,2123.58L1740.63,2241.73C1740.71,2241.83 1740.78,2241.94 1740.86,2242.04L1752.25,2257.73L1740.87,2242.06C1743.72,2246.29 1743.54,2251.89 1740.39,2255.94C1732.3,2266.14 1711.22,2287.6 1656.71,2327.16C1602.13,2366.78 1575.12,2380.19 1562.89,2384.73C1558.59,2386.3 1553.84,2385.22 1550.64,2382.12C1550.15,2381.65 1549.71,2381.13 1549.3,2380.57C1539.09,2366.53 1515.82,2334.48 1515.82,2334.48L1294.26,2029.19L1263.62,1987C1255.36,1975.63 1247.44,1964.06 1239.88,1952.29C1235.06,1960.86 1229.72,1969.19 1223.87,1977.24L1196.56,2014.81L1196.52,2015.02C1196.52,2015.02 966.932,2331.13 931.016,2380.57C930.613,2381.13 930.168,2381.64 929.688,2382.11L919.164,2396.59L929.685,2382.11C926.482,2385.22 921.73,2386.3 917.426,2384.73C905.199,2380.19 878.189,2366.78 823.604,2327.16C769.096,2287.6 748.015,2266.14 739.929,2255.94C736.686,2251.79 736.586,2245.99 739.682,2241.73L1048.91,1816.08C851.691,1752 595.483,1668.76 548.504,1653.49C543.504,1651.87 540.181,1647.13 540.351,1641.88C540.869,1628.89 545.279,1599.13 566.166,1534.85C587.225,1470.03 601.189,1443.53 608.337,1432.95C611.185,1428.78 616.439,1426.99 621.238,1428.55L1095.68,1582.71C1105.15,1585.78 1114.37,1589.39 1123.31,1593.48Z"></path>
            </g>
            <g transform="matrix(0.766555,0,0,0.852463,-1894.82,-284.216)">
                <path d="M3992.1,2679.06L3992.1,2937.66C3992.1,2988.86 3978.5,3028.36 3951.3,3056.16C3924.1,3083.96 3885.24,3097.86 3834.73,3097.86C3784.21,3097.86 3745.26,3083.96 3717.86,3056.16C3690.47,3028.36 3676.77,2988.86 3676.77,2937.66L3676.77,2679.06L3680.85,2674.86L3715.24,2674.86C3752.15,2674.86 3770.61,2695.26 3770.61,2736.06L3770.61,2938.86C3770.61,2966.86 3775.47,2987.66 3785.18,3001.26C3794.9,3014.86 3811.41,3021.66 3834.73,3021.66C3858.04,3021.66 3874.56,3014.86 3884.27,3001.26C3893.99,2987.66 3898.84,2966.86 3898.84,2938.86L3898.84,2679.06C3910.89,2676.66 3926.43,2675.46 3945.47,2675.46C3964.12,2675.46 3979.67,2676.66 3992.1,2679.06Z" style="fill:rgb(35,31,32);fill-rule:nonzero;"></path>
                <path d="M4039.32,3053.46C4040.48,3040.26 4044.46,3027.06 4051.26,3013.86C4058.06,3000.66 4066.13,2989.86 4075.45,2981.46C4117.03,3007.46 4156.47,3020.46 4193.78,3020.46C4210.1,3020.46 4222.05,3016.66 4229.62,3009.06C4237.2,3001.46 4240.99,2992.06 4240.99,2980.86C4240.99,2962.06 4228.75,2947.26 4204.27,2936.46L4135.49,2906.46C4108.68,2894.06 4088.08,2879.16 4073.7,2861.76C4059.33,2844.36 4052.14,2822.26 4052.14,2795.46C4052.14,2777.06 4055.73,2760.26 4062.92,2745.06C4070.11,2729.86 4080.21,2716.66 4093.23,2705.46C4106.25,2694.26 4121.69,2685.56 4139.57,2679.36C4157.44,2673.16 4177.26,2670.06 4199.02,2670.06C4242.54,2670.06 4286.45,2681.46 4330.75,2704.26C4328.81,2735.06 4318.32,2759.06 4299.28,2776.26C4259.64,2756.66 4224.67,2746.86 4194.36,2746.86C4178.82,2746.86 4167.16,2750.46 4159.39,2757.66C4151.62,2764.86 4147.73,2773.06 4147.73,2782.26C4147.73,2797.86 4159.19,2810.46 4182.12,2820.06L4252.06,2850.66C4281.6,2863.46 4303.65,2879.86 4318.22,2899.86C4332.79,2919.86 4340.08,2943.06 4340.08,2969.46C4340.08,2988.26 4336.77,3005.46 4330.17,3021.06C4323.56,3036.66 4313.75,3050.16 4300.73,3061.56C4287.72,3072.96 4271.49,3081.86 4252.06,3088.26C4232.64,3094.66 4209.9,3097.86 4183.87,3097.86C4133.35,3097.86 4085.17,3083.06 4039.32,3053.46Z" style="fill:rgb(35,31,32);fill-rule:nonzero;"></path>
                <path d="M4400.7,3088.86L4400.7,2679.06C4412.74,2676.66 4428.29,2675.46 4447.33,2675.46C4466.37,2675.46 4482.11,2676.66 4494.54,2679.06L4494.54,3088.86C4482.11,3091.26 4466.37,3092.46 4447.33,3092.46C4428.29,3092.46 4412.74,3091.26 4400.7,3088.86Z" style="fill:rgb(35,31,32);fill-rule:nonzero;"></path>
            </g>
        </g>
    </g>
</svg>